<svg width="64" height="40" viewBox="0 0 64 40" fill="none" xmlns="http://www.w3.org/2000/svg">
<g clip-path="url(#clip0_592_6082)">
<path d="M4.16734 3.84842C4.43341 3.65155 4.65003 3.39296 4.79945 3.0939C4.94886 2.79483 5.02681 2.4638 5.02689 2.12796C5.02652 2.04244 5.02114 1.95701 5.01081 1.87213C4.9603 1.35895 4.72518 0.883248 4.35107 0.537319C3.97695 0.19139 3.49051 -0.000100481 2.98613 3.95555e-08L0.713059 3.95555e-08C0.656423 3.95555e-08 0.602106 0.0230068 0.562058 0.0639591C0.52201 0.104911 0.499512 0.160455 0.499512 0.21837L0.499512 5.42635C0.499512 5.48427 0.52201 5.53981 0.562058 5.58076C0.602106 5.62172 0.656423 5.64472 0.713059 5.64472H1.6423C1.69894 5.64472 1.75325 5.62172 1.7933 5.58076C1.83335 5.53981 1.85585 5.48427 1.85585 5.42635V4.25593H2.84406L3.71612 5.55244C3.73631 5.58147 3.76317 5.60499 3.79433 5.62092C3.82549 5.63685 3.86 5.64471 3.89482 5.64381H4.96703C5.00613 5.64407 5.04456 5.63339 5.07816 5.61293C5.11175 5.59247 5.13924 5.563 5.15764 5.52772C5.17605 5.49244 5.18466 5.45268 5.18256 5.41275C5.18046 5.37282 5.16772 5.33424 5.14573 5.30118L4.16734 3.84842ZM2.94771 2.87353H1.85585V1.38697H2.94771C3.13608 1.39372 3.31452 1.47499 3.44544 1.61364C3.57636 1.7523 3.64953 1.93751 3.64953 2.13025C3.64953 2.32299 3.57636 2.5082 3.44544 2.64685C3.31452 2.78551 3.13608 2.86677 2.94771 2.87353Z" fill="#E73232"/>
<path d="M10.1663 1.1686V0.21837C10.1663 0.160455 10.1438 0.104911 10.1038 0.063959C10.0637 0.0230068 10.0094 0 9.95276 0L6.23043 0C6.17371 -5.03463e-07 6.1193 0.0229771 6.07911 0.0639033C6.03892 0.10483 6.01623 0.160371 6.01599 0.21837V5.42635C6.01623 5.48435 6.03892 5.53989 6.07911 5.58082C6.1193 5.62175 6.17371 5.64472 6.23043 5.64472H9.95276C10.0094 5.64472 10.0637 5.62172 10.1038 5.58076C10.1438 5.53981 10.1663 5.48427 10.1663 5.42635V4.47704C10.1663 4.41912 10.1438 4.36358 10.1038 4.32263C10.0637 4.28168 10.0094 4.25867 9.95276 4.25867H7.37322V3.47199H9.22635C9.28298 3.47199 9.3373 3.44898 9.37735 3.40803C9.41739 3.36708 9.43989 3.31153 9.43989 3.25362V2.29974C9.44001 2.27098 9.43457 2.24249 9.4239 2.21589C9.41322 2.18929 9.39751 2.16511 9.37766 2.14473C9.35782 2.12436 9.33424 2.10819 9.30827 2.09716C9.28231 2.08613 9.25447 2.08045 9.22635 2.08045H7.37322V1.38697H9.95276C10.0094 1.38697 10.0637 1.36396 10.1038 1.32301C10.1438 1.28206 10.1663 1.22651 10.1663 1.1686Z" fill="#E73232"/>
<path d="M18.3043 0H17.3054C17.2067 0 17.1267 0.0818138 17.1267 0.182736V5.46473C17.1267 5.56565 17.2067 5.64746 17.3054 5.64746H18.3043C18.403 5.64746 18.483 5.56565 18.483 5.46473V0.182736C18.483 0.0818138 18.403 0 18.3043 0Z" fill="#E73232"/>
<path d="M22.8666 1.1686V0.21837C22.8666 0.160455 22.8441 0.104911 22.8041 0.063959C22.764 0.0230068 22.7097 0 22.6531 0L21.0072 0C20.5511 0 20.1136 0.185305 19.791 0.515151C19.4684 0.844997 19.2872 1.29236 19.2872 1.75884C19.2872 2.22531 19.4684 2.67268 19.791 3.00252C20.1136 3.33237 20.5511 3.51767 21.0072 3.51767H21.563C21.6593 3.51767 21.7516 3.55673 21.8198 3.62627C21.888 3.69581 21.9264 3.79016 21.9266 3.88863C21.9266 3.98725 21.8883 4.08184 21.8201 4.15158C21.7519 4.22132 21.6594 4.2605 21.563 4.2605H19.5312C19.4747 4.26025 19.4204 4.2829 19.3802 4.32348C19.34 4.36407 19.3172 4.41928 19.3167 4.47704V5.42727C19.3165 5.45617 19.3219 5.48484 19.3325 5.51161C19.3432 5.53837 19.359 5.5627 19.3789 5.58319C19.3989 5.60367 19.4226 5.6199 19.4487 5.63093C19.4749 5.64197 19.5029 5.64759 19.5312 5.64746H21.5639C22.02 5.64746 22.4575 5.46216 22.7801 5.13231C23.1027 4.80247 23.2839 4.3551 23.2839 3.88863C23.2839 3.42216 23.1027 2.97479 22.7801 2.64494C22.4575 2.3151 22.02 2.12979 21.5639 2.12979H21.0081C20.9118 2.12979 20.8195 2.09074 20.7513 2.0212C20.6831 1.95166 20.6447 1.8573 20.6445 1.75884C20.6445 1.66021 20.6828 1.56562 20.751 1.49589C20.8192 1.42615 20.9117 1.38697 21.0081 1.38697H22.654C22.7104 1.38673 22.7645 1.36361 22.8044 1.32269C22.8442 1.28176 22.8666 1.22636 22.8666 1.1686Z" fill="#E73232"/>
<path d="M15.077 0.138784L13.6474 3.87574L12.2178 0.138784C12.202 0.09751 12.1744 0.0621199 12.1384 0.037314C12.1025 0.0125081 12.0601 -0.000539539 12.0168 -9.59395e-05H11.1233C11.0884 4.31089e-06 11.0542 0.00877333 11.0234 0.0254533C10.9926 0.0421333 10.9663 0.0662224 10.9467 0.095639C10.9271 0.125056 10.9148 0.158915 10.9108 0.19429C10.9069 0.229666 10.9114 0.265494 10.924 0.298678L12.9192 5.50666C12.9349 5.54764 12.9623 5.58283 12.9978 5.60761C13.0334 5.63239 13.0754 5.64561 13.1185 5.64554H14.179C14.2221 5.64561 14.2641 5.63239 14.2997 5.60761C14.3352 5.58283 14.3626 5.54764 14.3783 5.50666L16.3726 0.298678C16.3854 0.265501 16.3901 0.22961 16.3863 0.194145C16.3824 0.158679 16.3701 0.124721 16.3505 0.0952398C16.3308 0.0657588 16.3044 0.0416539 16.2735 0.0250341C16.2426 0.00841425 16.2082 -0.000214063 16.1733 -9.59395e-05H15.2798C15.2362 -0.000784258 15.1935 0.0121404 15.1572 0.0369539C15.121 0.0617674 15.093 0.0972901 15.077 0.138784Z" fill="#E73232"/>
<path d="M27.8613 5.64746H28.7548C28.7897 5.64758 28.824 5.63895 28.8549 5.62233C28.8858 5.60571 28.9122 5.58161 28.9319 5.55213C28.9515 5.52265 28.9638 5.48869 28.9677 5.45322C28.9716 5.41776 28.9669 5.38187 28.954 5.34869L26.9597 0.140707C26.9447 0.100729 26.9187 0.0661031 26.8847 0.0410999C26.8507 0.0160967 26.8103 0.00180941 26.7685 1.26283e-08H25.6963C25.6534 -1.49357e-05 25.6115 0.0132414 25.5761 0.0380277C25.5407 0.0628139 25.5134 0.0979707 25.4979 0.13888L23.5027 5.34686C23.4901 5.38005 23.4856 5.41587 23.4895 5.45125C23.4935 5.48663 23.5058 5.52048 23.5254 5.5499C23.5451 5.57932 23.5714 5.60341 23.6021 5.62009C23.6329 5.63677 23.6672 5.64554 23.702 5.64564H24.5955C24.6397 5.64755 24.6833 5.63539 24.7205 5.61084C24.7576 5.58629 24.7864 5.55056 24.8028 5.50858L25.1602 4.56841H27.3046L27.662 5.50767C27.6776 5.54875 27.705 5.58406 27.7405 5.609C27.7761 5.63393 27.8181 5.64734 27.8613 5.64746ZM25.6963 3.18235L26.2324 1.77163L26.7685 3.18235H25.6963Z" fill="#E73232"/>
<path d="M0.499512 7.78445V23.3737C0.499512 23.4343 0.523046 23.4924 0.564937 23.5352C0.606828 23.578 0.663645 23.6021 0.722887 23.6021H12.1821C12.2413 23.6021 12.2981 23.578 12.34 23.5352C12.3819 23.4924 12.4054 23.4343 12.4054 23.3737V19.5362C12.4054 19.4756 12.3819 19.4175 12.34 19.3747C12.2981 19.3319 12.2413 19.3078 12.1821 19.3078H4.69898V17.5901H10.177C10.2363 17.5901 10.2931 17.566 10.335 17.5232C10.3769 17.4803 10.4004 17.4222 10.4004 17.3617V13.5224C10.4004 13.4618 10.3769 13.4037 10.335 13.3609C10.2931 13.318 10.2363 13.2939 10.177 13.2939H4.69898V11.8503H12.1812C12.2404 11.8503 12.2972 11.8263 12.3391 11.7834C12.381 11.7406 12.4045 11.6825 12.4045 11.6219V7.78445C12.4045 7.72387 12.381 7.66577 12.3391 7.62293C12.2972 7.5801 12.2404 7.55603 12.1812 7.55603H0.722887C0.693553 7.55603 0.664506 7.56194 0.637405 7.57342C0.610304 7.5849 0.585679 7.60172 0.564937 7.62293C0.544195 7.64414 0.527741 7.66933 0.516515 7.69704C0.50529 7.72475 0.499512 7.75445 0.499512 7.78445V7.78445Z" fill="#5476EF"/>
<path d="M58.3431 7.67483L54.0543 17.1607L49.7691 7.67483C49.7497 7.6394 49.7214 7.60988 49.6872 7.58933C49.653 7.56877 49.614 7.55792 49.5743 7.55788H44.8387C44.7795 7.55788 44.7227 7.58195 44.6808 7.62479C44.6389 7.66762 44.6154 7.72572 44.6154 7.7863V23.3737C44.6154 23.4343 44.6389 23.4924 44.6808 23.5352C44.7227 23.5781 44.7795 23.6021 44.8387 23.6021H48.5914C48.6507 23.6021 48.7075 23.5781 48.7494 23.5352C48.7913 23.4924 48.8148 23.4343 48.8148 23.3737V16.7331L51.8983 23.4706C51.9164 23.5098 51.9449 23.5429 51.9807 23.5662C52.0164 23.5895 52.0579 23.6019 52.1002 23.6021H56.0164C56.0589 23.6019 56.1005 23.5894 56.1364 23.5662C56.1722 23.5429 56.201 23.5098 56.2193 23.4706L59.3027 16.7331V23.3737C59.3026 23.4037 59.3083 23.4333 59.3194 23.461C59.3306 23.4888 59.3469 23.5139 59.3676 23.5352C59.3883 23.5564 59.4128 23.5732 59.4399 23.5847C59.4669 23.5962 59.4959 23.6021 59.5252 23.6021H63.2779C63.3072 23.6021 63.3362 23.5962 63.3633 23.5847C63.3903 23.5732 63.4149 23.5564 63.4356 23.5352C63.4563 23.5139 63.4726 23.4888 63.4837 23.461C63.4949 23.4333 63.5005 23.4037 63.5004 23.3737V7.78448C63.5005 7.75452 63.4949 7.72484 63.4837 7.69713C63.4726 7.66942 63.4563 7.64424 63.4356 7.62301C63.4149 7.60179 63.3903 7.58495 63.3633 7.57346C63.3362 7.56197 63.3072 7.55605 63.2779 7.55605H58.5424C58.5017 7.55545 58.4617 7.56618 58.4266 7.58711C58.3915 7.60804 58.3626 7.63837 58.3431 7.67483Z" fill="#5476EF"/>
<g opacity="0.3">
<path opacity="0.3" d="M27.8613 27.2212C27.9069 27.276 27.9507 27.3309 27.9998 27.3848C28.0239 27.4122 28.0498 27.4396 28.0757 27.467C28.1213 27.5163 28.1651 27.5666 28.2125 27.615C29.1431 28.5747 30.3238 29.2407 31.614 29.5338L31.6346 27.9321C30.6443 27.6409 29.7565 27.0654 29.0765 26.2737C28.7192 25.8581 28.4249 25.3899 28.2035 24.8849L28.1785 24.8292C28.1579 24.7799 28.1383 24.7305 28.1186 24.6803C28.1061 24.6474 28.0927 24.6154 28.0811 24.5825C28.0695 24.5496 28.0516 24.4994 28.0373 24.4573C28.023 24.4153 28.0078 24.3705 27.9935 24.3276C27.9792 24.2847 27.973 24.2582 27.9623 24.2234C27.9471 24.1704 27.9319 24.1165 27.9176 24.0626C27.9104 24.0352 27.9033 24.0078 27.897 23.9804C27.881 23.9164 27.8667 23.8525 27.8533 23.7885C27.8533 23.7684 27.8452 23.7492 27.8408 23.7291C27.8265 23.6533 27.8131 23.5775 27.8014 23.5007C27.8014 23.4907 27.8014 23.4806 27.797 23.4715C27.6801 22.6875 27.7303 21.8869 27.944 21.1245C28.1578 20.3621 28.53 19.656 29.0354 19.0543C29.5407 18.4527 30.1672 17.9698 30.872 17.6388C31.5767 17.3077 32.3431 17.1362 33.1187 17.136C33.9271 17.1365 34.7249 17.3239 35.4525 17.6842C36.234 18.0703 36.9134 18.6428 37.4334 19.3535C38.126 20.3039 38.5001 21.4575 38.5001 22.6428C38.5001 23.828 38.126 24.9816 37.4334 25.932L37.4218 25.9476L37.3512 26.0389C37.4525 26.0142 37.5562 26.0016 37.6604 26.0015C37.8854 26.0025 38.1068 26.0595 38.3055 26.1678C38.5091 26.2772 38.685 26.4336 38.8192 26.6246C39.5271 25.5629 39.9384 24.3239 40.0089 23.041C40.0793 21.758 39.8064 20.4797 39.2193 19.3436C38.6322 18.2075 37.7533 17.2566 36.6771 16.5933C35.6008 15.93 34.3681 15.5793 33.1115 15.5791C31.2795 15.5791 29.5225 16.3233 28.2271 17.648C26.9316 18.9727 26.2039 20.7694 26.2039 22.6428C26.2039 22.6848 26.2039 22.7259 26.2039 22.7679C26.2039 22.8474 26.2039 22.9269 26.2101 23.0064C26.2101 23.0265 26.2101 23.0475 26.2146 23.0685C26.2199 23.1672 26.2271 23.2668 26.2369 23.3646C26.2369 23.3865 26.2423 23.4094 26.245 23.4313C26.2557 23.5272 26.2664 23.6232 26.2807 23.7173C26.2807 23.7428 26.2896 23.7675 26.2932 23.7922C26.3084 23.8836 26.3227 23.9749 26.3406 24.0663C26.3468 24.0946 26.354 24.1229 26.3602 24.1513C26.3781 24.2371 26.3969 24.323 26.4174 24.4071C26.4254 24.4382 26.4353 24.4683 26.4433 24.4985C26.4648 24.5798 26.4862 24.6611 26.5103 24.7415C26.5211 24.7753 26.5327 24.8082 26.5434 24.842C26.5675 24.9178 26.5916 24.9946 26.6184 25.0686C26.6318 25.1051 26.647 25.1417 26.6604 25.1773C26.6872 25.2486 26.7132 25.3189 26.7417 25.3884C26.7578 25.4268 26.7748 25.4642 26.7918 25.5017C26.8204 25.5684 26.849 25.6351 26.8811 25.7009C26.899 25.7392 26.9196 25.7776 26.9383 25.816C26.9696 25.879 27 25.943 27.033 26.0051C27.0536 26.0435 27.0759 26.081 27.0974 26.1193C27.1304 26.1796 27.1635 26.2408 27.1983 26.3021L27.2689 26.4144C27.3047 26.4729 27.3395 26.5314 27.377 26.588C27.4012 26.6246 27.4271 26.6602 27.4521 26.6968C27.4914 26.7525 27.5289 26.8092 27.5691 26.8649C27.5941 26.8996 27.621 26.9325 27.6469 26.9663C27.6889 27.022 27.73 27.0778 27.7737 27.1317C27.8086 27.16 27.8354 27.1902 27.8613 27.2212Z" fill="#5476EF"/>
</g>
<path d="M41.5443 28.1413C41.5397 27.8439 41.4526 27.554 41.2933 27.3053C41.1895 27.1475 41.0595 27.0096 40.9091 26.8978C40.6446 26.7028 40.3263 26.5991 40.0004 26.6017C39.8594 26.6034 39.7194 26.6262 39.5849 26.6693C39.4209 26.7195 39.2663 26.7974 39.1274 26.8996C38.984 26.5578 38.7262 26.2795 38.4001 26.1147C38.1589 25.9871 37.8878 25.9302 37.617 25.9501C37.3461 25.9701 37.0859 26.0663 36.8651 26.228L36.8543 26.2353C36.8257 26.2564 36.798 26.2774 36.7712 26.2993C36.6579 26.0863 36.4972 25.9035 36.3021 25.7657C36.047 25.5793 35.741 25.4796 35.4274 25.4806H35.4069C35.2405 25.4838 35.0757 25.5147 34.919 25.572C34.8323 25.6026 34.7485 25.6415 34.6688 25.688V23.6917V23.5729C34.6688 23.3381 34.6688 23.095 34.6465 22.8419C34.6095 22.4525 34.4318 22.0912 34.148 21.8288C33.8643 21.5663 33.4949 21.4216 33.1123 21.423V21.5372V21.423C32.9357 21.4254 32.761 21.4607 32.5968 21.5271C31.9901 21.7665 31.6005 22.3842 31.6032 23.0996V30.7325C31.3912 30.484 31.177 30.2315 30.9608 29.975L30.816 29.8042C30.6543 29.6011 30.4497 29.4381 30.2176 29.3273C29.9855 29.2165 29.7319 29.1609 29.4758 29.1646C29.3249 29.1672 29.1749 29.1884 29.029 29.2277C28.7344 29.3026 28.4641 29.4549 28.2447 29.6695C28.0253 29.884 27.8645 30.1535 27.7781 30.4511V30.4639C27.6913 30.7578 27.6807 31.0697 27.7472 31.369C27.8138 31.6684 27.9553 31.9449 28.1579 32.1715L29.3194 33.4635C29.6339 33.8143 29.9592 34.1761 30.2773 34.5361C30.867 35.2031 31.5585 35.998 32.2108 36.8569C32.4649 37.2055 32.7944 37.4893 33.1735 37.6862C33.5526 37.883 33.9711 37.9876 34.3963 37.9917C34.7332 37.9999 35.0745 38.0017 35.3872 38.0017H35.9331C36.3665 38.0017 36.8025 38.0017 37.1322 38.0017H37.2439C38.0043 37.9917 38.7218 37.7669 39.5009 37.2955L39.6439 37.1904C39.7595 37.1113 39.8705 37.0253 39.9762 36.9327C40.2443 36.6933 40.6276 36.3087 40.7911 35.7221C41.0413 34.8097 41.2188 33.878 41.3218 32.9363C41.4058 32.2145 41.4898 31.4397 41.5291 30.6694C41.5568 29.9531 41.5631 29.1747 41.5443 28.1413ZM29.499 29.9769C29.6374 29.979 29.7734 30.0129 29.8972 30.0762C30.0209 30.1395 30.1292 30.2304 30.2138 30.3423L30.3577 30.5105C30.7678 30.9974 31.1806 31.4835 31.5862 31.9559L31.6756 32.0564C31.7154 32.1027 31.7643 32.1398 31.8191 32.1653C31.8739 32.1908 31.9334 32.2041 31.9937 32.2044H31.999C32.0477 32.2036 32.0957 32.194 32.1411 32.1761C32.2055 32.1507 32.2624 32.1088 32.3064 32.0544C32.3504 32 32.3799 31.9349 32.3922 31.8654V31.8472C32.398 31.8224 32.4004 31.7968 32.3993 31.7713V23.1005C32.3993 22.7186 32.5843 22.4079 32.8863 22.2892C32.9609 22.259 33.0402 22.2429 33.1204 22.2416H33.132C33.3125 22.2444 33.4857 22.3146 33.619 22.439C33.7524 22.5634 33.8366 22.7333 33.8557 22.9169C33.8745 23.1352 33.8745 23.3609 33.8754 23.5793V23.6935V28.3167C33.8754 28.6213 33.8754 28.9292 33.8754 29.2404V29.3729C33.8754 29.637 33.8754 29.901 33.8754 30.1687V30.41C33.8754 30.7069 34.0353 30.8997 34.2909 30.9024C34.3429 30.9026 34.3944 30.8917 34.442 30.8705C34.4897 30.8493 34.5326 30.8181 34.5679 30.7791C34.6138 30.7288 34.6495 30.6698 34.673 30.6053C34.6965 30.5409 34.7072 30.4723 34.7046 30.4036C34.6983 29.5484 34.6974 28.727 34.6974 28.0362V27.1509C34.6974 26.7635 34.8868 26.4464 35.1835 26.3432C35.2596 26.3157 35.3396 26.3012 35.4203 26.3002C35.5729 26.2952 35.7227 26.3428 35.8456 26.4354C35.9476 26.5103 36.03 26.6098 36.0855 26.725C36.141 26.8402 36.1678 26.9677 36.1637 27.096V27.3701C36.1637 27.7356 36.1637 28.0938 36.1637 28.4538V29.8956C36.1637 30.0417 36.1637 30.1907 36.1637 30.3369V30.4474C36.1621 30.5096 36.1729 30.5714 36.1953 30.6291C36.2177 30.6869 36.2513 30.7395 36.2941 30.7836C36.3731 30.8605 36.4785 30.9025 36.5876 30.9005C36.6966 30.8984 36.8005 30.8525 36.8767 30.7727C36.9505 30.6882 36.9901 30.5781 36.9875 30.4648C36.9875 30.2245 36.9875 29.9851 36.9875 29.7457V29.6799C36.9875 29.5484 36.9875 29.4177 36.9875 29.2861V27.6113C36.9875 27.2943 37.0974 27.0549 37.3091 26.9014C37.4209 26.8225 37.5519 26.7771 37.6875 26.7701C37.8231 26.7631 37.9579 26.7949 38.0769 26.8618C38.1958 26.9288 38.2941 27.0283 38.3609 27.1493C38.4276 27.2702 38.46 27.4077 38.4546 27.5465C38.4546 28.0627 38.4546 28.5844 38.4546 29.1043V30.4438C38.4514 30.5224 38.4687 30.6005 38.5049 30.6701C38.541 30.7396 38.5946 30.7981 38.6601 30.8394C38.7237 30.877 38.7961 30.8965 38.8696 30.8959C38.9432 30.8952 39.0152 30.8743 39.0781 30.8355C39.1411 30.7967 39.1927 30.7413 39.2276 30.6751C39.2626 30.609 39.2795 30.5344 39.2766 30.4593V29.8078C39.2766 29.2953 39.2766 28.7845 39.2766 28.2719C39.2766 27.8599 39.4741 27.5529 39.8127 27.4496C39.8746 27.4297 39.939 27.4192 40.0039 27.4186C40.1589 27.4174 40.3101 27.467 40.4355 27.5602C40.5079 27.6138 40.5705 27.68 40.6204 27.7557C40.6968 27.8755 40.7386 28.0148 40.7411 28.1577C40.7589 29.1737 40.7536 29.9358 40.7232 30.6247C40.6857 31.3711 40.6035 32.1286 40.5204 32.8376C40.4221 33.736 40.2533 34.6248 40.0155 35.4955C39.9119 35.8674 39.6581 36.1278 39.4428 36.3178C39.3553 36.3938 39.2634 36.4643 39.1676 36.5289L39.0783 36.5965C38.426 36.9903 37.8363 37.1776 37.2216 37.1858H37.1331C36.7328 37.1858 36.329 37.1858 35.9242 37.1858C35.5007 37.1858 34.9413 37.1904 34.4052 37.1785C34.0987 37.175 33.7971 37.0989 33.5241 36.9562C33.2511 36.8136 33.0142 36.6082 32.8318 36.3562C32.1652 35.48 31.4611 34.6686 30.8607 33.9898C30.5355 33.6243 30.2094 33.2588 29.8823 32.8933L28.7369 31.6197C28.6273 31.4962 28.5509 31.3457 28.5152 31.183C28.4795 31.0203 28.4857 30.8509 28.5331 30.6914C28.5788 30.5268 28.6663 30.3776 28.7867 30.2588C28.907 30.1401 29.056 30.056 29.2185 30.0152C29.3043 29.9922 29.3924 29.9794 29.4811 29.9769H29.499Z" fill="#5476EF"/>
<g opacity="0.3">
<path opacity="0.3" d="M28.2651 22.9616C28.2651 23.0155 28.2722 23.0694 28.2776 23.1233C28.2776 23.1553 28.2847 23.1864 28.2883 23.2147C28.2928 23.2604 28.299 23.3061 28.3053 23.3536C28.3115 23.4011 28.3151 23.423 28.3213 23.4577C28.3276 23.4925 28.3348 23.54 28.3428 23.5811C28.3508 23.6222 28.3571 23.656 28.3651 23.6935C28.3732 23.7309 28.3812 23.7666 28.3893 23.8022L28.4187 23.9237C28.4268 23.953 28.4348 23.9822 28.4438 24.0151C28.4563 24.0608 28.4688 24.1064 28.4831 24.1521C28.4831 24.1622 28.4902 24.1722 28.4929 24.1823C28.5417 24.3358 28.5977 24.485 28.6609 24.63C28.7047 24.7341 28.7502 24.8356 28.8021 24.9352C28.8024 24.9379 28.8024 24.9407 28.8021 24.9434C28.8333 25.0037 28.8655 25.0631 28.8994 25.1261V25.1325C28.9459 25.2138 28.9951 25.2933 29.0451 25.3719L29.0871 25.4359C29.1371 25.5108 29.1889 25.5857 29.2426 25.6579L29.272 25.6963L29.3676 25.8196C29.9611 26.5525 30.7474 27.0963 31.6336 27.3866L31.6541 25.8333C31.059 25.5468 30.5562 25.0926 30.2049 24.524C29.8456 23.9408 29.6621 23.2624 29.6772 22.5733C29.6922 21.8842 29.9052 21.2148 30.2895 20.6486C30.6739 20.0823 31.2126 19.6442 31.8387 19.3888C32.4647 19.1333 33.1504 19.0719 33.8104 19.212C34.4704 19.3522 35.0754 19.6878 35.5503 20.177C36.0251 20.6662 36.3487 21.2875 36.4808 21.9634C36.6128 22.6393 36.5476 23.34 36.293 23.9782C36.0385 24.6165 35.606 25.1641 35.0494 25.5528C35.1543 25.528 35.2616 25.5155 35.3693 25.5153C35.6678 25.5136 35.959 25.6097 36.2003 25.7895C36.3378 25.8929 36.4561 26.0207 36.5496 26.1668L36.5684 26.1485C36.6131 26.1019 36.6577 26.0572 36.7006 26.0069L36.7542 25.9439C36.7846 25.9082 36.815 25.8735 36.8436 25.8379L36.8972 25.7703C36.9258 25.7337 36.9553 25.6963 36.9865 25.6588L37.0339 25.5948C37.0643 25.5519 37.0947 25.5089 37.1232 25.4651C37.134 25.4477 37.1456 25.4313 37.1572 25.4148C37.284 25.2204 37.3977 25.0174 37.4976 24.8072V24.8008C37.5307 24.7305 37.562 24.6592 37.5923 24.587V24.5825C37.8914 23.8583 38.0183 23.0719 37.9627 22.2878C37.907 21.5037 37.6704 20.7443 37.2721 20.0719C36.8739 19.3994 36.3255 18.8331 35.6718 18.4193C35.0182 18.0055 34.2779 17.7561 33.5117 17.6915C33.3795 17.6805 33.2437 17.6732 33.1096 17.6732C31.8193 17.6732 30.5819 18.1974 29.6695 19.1304C28.7571 20.0634 28.2445 21.3288 28.2445 22.6482C28.2445 22.7295 28.2445 22.8099 28.2508 22.8903C28.2615 22.9104 28.2642 22.9333 28.2651 22.9616Z" fill="#5476EF"/>
</g>
<g opacity="0.3">
<path opacity="0.3" d="M30.2648 22.8127C30.2648 22.831 30.2648 22.8483 30.2648 22.8657C30.2648 22.9032 30.2701 22.9406 30.2746 22.9772C30.2746 22.9954 30.2791 23.0137 30.2818 23.0311C30.2862 23.0694 30.2916 23.1069 30.2978 23.1444L30.3059 23.1891C30.3139 23.233 30.3229 23.2759 30.3327 23.3189L30.338 23.3426C30.355 23.4121 30.3747 23.4797 30.3961 23.5473L30.4176 23.6131C30.4354 23.6652 30.4551 23.7163 30.4756 23.7666C30.4819 23.783 30.4882 23.8004 30.4953 23.8168C30.5167 23.8662 30.5391 23.9155 30.5632 23.963C30.8101 24.4611 31.1907 24.877 31.6604 25.1618L31.689 22.9799C31.6944 22.3056 32.067 21.7309 32.6388 21.5134C32.7932 21.4534 32.957 21.4225 33.1222 21.4221C33.4808 21.4252 33.8254 21.5652 34.0882 21.8147C34.3511 22.0642 34.5132 22.4052 34.5429 22.7707C34.5607 23.0192 34.5581 23.2604 34.5554 23.4934V23.6094L34.533 25.1791L34.5884 25.1462H34.5929C34.6304 25.1234 34.6671 25.0987 34.7037 25.0731C34.7403 25.0476 34.777 25.022 34.8118 24.9946C34.8476 24.9672 34.8833 24.9388 34.9181 24.9096C35.3383 24.5555 35.6506 24.086 35.8182 23.5564C35.9859 23.0267 36.0019 22.4591 35.8644 21.9204C35.7269 21.3818 35.4416 20.8946 35.0422 20.5163C34.6427 20.1381 34.1458 19.8846 33.6101 19.7857C33.4427 19.754 33.2728 19.7381 33.1025 19.7382C32.3458 19.7394 31.6204 20.0473 31.0852 20.5945C30.5501 21.1417 30.249 21.8835 30.2478 22.6574V22.6592C30.2603 22.7076 30.2612 22.7606 30.2648 22.8127Z" fill="#5476EF"/>
</g>
<path d="M33.1205 17.6678C32.3252 17.667 31.5419 17.8659 30.8394 18.2471V20.0224C31.3956 19.5188 32.0962 19.2126 32.8366 19.1496C33.577 19.0866 34.3174 19.2701 34.9474 19.6728C35.5774 20.0755 36.0631 20.6757 36.3321 21.3839C36.6011 22.0921 36.6389 22.8703 36.4398 23.6022H37.9141C38.0576 22.8421 38.0258 22.0582 37.8214 21.3128C37.617 20.5674 37.2455 19.8809 36.7365 19.3079H35.0388V18.069C34.4325 17.8037 33.7799 17.6673 33.1205 17.6678Z" fill="#5476EF"/>
<path d="M38.5207 22.6592C38.5202 22.975 38.4933 23.2901 38.4403 23.6012H42.5218C42.581 23.6012 42.6379 23.5771 42.6798 23.5343C42.7216 23.4914 42.7452 23.4333 42.7452 23.3728V19.5353C42.7452 19.4747 42.7216 19.4166 42.6798 19.3738C42.6379 19.331 42.581 19.3069 42.5218 19.3069H37.4065C38.1297 20.2679 38.5214 21.4466 38.5207 22.6592Z" fill="#5476EF"/>
<path d="M30.8394 7.78445V17.6568C31.5293 17.3266 32.2799 17.1499 33.0415 17.1384C33.8032 17.1269 34.5586 17.2809 35.2577 17.5901H40.5178C40.577 17.5901 40.6338 17.566 40.6757 17.5232C40.7176 17.4803 40.7412 17.4222 40.7412 17.3617V13.5224C40.7412 13.4618 40.7176 13.4037 40.6757 13.3609C40.6338 13.318 40.577 13.294 40.5178 13.294H35.0397V11.8503H42.5219C42.5811 11.8503 42.638 11.8263 42.6799 11.7834C42.7217 11.7406 42.7453 11.6825 42.7453 11.6219V7.78445C42.7453 7.72387 42.7217 7.66577 42.6799 7.62293C42.638 7.5801 42.5811 7.55603 42.5219 7.55603H31.0627C31.0334 7.55603 31.0044 7.56194 30.9773 7.57342C30.9501 7.5849 30.9255 7.60172 30.9048 7.62293C30.884 7.64414 30.8676 7.66933 30.8564 7.69704C30.8451 7.72475 30.8394 7.75445 30.8394 7.78445Z" fill="#5476EF"/>
<path d="M31.7122 22.9717C31.7176 22.3038 32.0884 21.7327 32.6567 21.5189C32.8078 21.4593 32.9683 21.4283 33.1302 21.4275C33.4869 21.4292 33.83 21.5677 34.0915 21.8158C34.3529 22.0639 34.5137 22.4034 34.542 22.767C34.5589 23.0137 34.5571 23.254 34.5545 23.4861V23.6012H35.8447C36.0647 22.9412 36.0479 22.2227 35.7972 21.5743C35.5466 20.9258 35.0785 20.3898 34.4766 20.0619C33.8748 19.7341 33.1786 19.636 32.5125 19.7851C31.8464 19.9342 31.2539 20.3208 30.8411 20.8757V23.3728C30.8411 23.4334 30.8646 23.4915 30.9065 23.5343C30.9484 23.5771 31.0052 23.6012 31.0644 23.6012H31.706L31.7122 22.9717Z" fill="#5476EF"/>
<path d="M26.2476 23.3645C26.2378 23.2668 26.2306 23.1672 26.2253 23.0685C26.2253 23.0475 26.2253 23.0265 26.2208 23.0064C26.2163 22.9269 26.2163 22.8474 26.2145 22.7679C26.2145 22.7259 26.2145 22.6848 26.2145 22.6427C26.2136 21.5468 26.4624 20.4658 26.9412 19.4854C27.4199 18.5049 28.1155 17.652 28.9728 16.9944V7.78445C28.9728 7.72387 28.9492 7.66577 28.9074 7.62293C28.8655 7.5801 28.8086 7.55603 28.7494 7.55603H24.9967C24.9374 7.55603 24.8806 7.5801 24.8387 7.62293C24.7968 7.66577 24.7733 7.72387 24.7733 7.78445V16.3402L18.5393 7.64923C18.5185 7.62091 18.4915 7.59792 18.4605 7.58207C18.4295 7.56622 18.3953 7.55793 18.3606 7.55786H14.4953C14.4361 7.55786 14.3793 7.58192 14.3374 7.62476C14.2955 7.6676 14.272 7.7257 14.272 7.78628V23.3737C14.272 23.4343 14.2955 23.4924 14.3374 23.5352C14.3793 23.578 14.4361 23.6021 14.4953 23.6021H18.2481C18.3073 23.6021 18.3641 23.578 18.406 23.5352C18.4479 23.4924 18.4714 23.4343 18.4714 23.3737V14.818L24.7045 23.5089C24.7254 23.5372 24.7524 23.5602 24.7834 23.5761C24.8144 23.5919 24.8485 23.6002 24.8832 23.6003H26.2771C26.2699 23.5427 26.2619 23.487 26.2556 23.4294C26.253 23.4093 26.2494 23.3901 26.2476 23.3645Z" fill="#5476EF"/>
<path d="M26.2118 22.6428C26.2118 22.6848 26.2118 22.7259 26.2118 22.7679C26.2118 22.8474 26.2118 22.9269 26.218 23.0064C26.218 23.0265 26.2181 23.0475 26.2225 23.0685C26.2279 23.1672 26.235 23.2668 26.2449 23.3646C26.2449 23.3865 26.2502 23.4093 26.2529 23.4313C26.2592 23.4888 26.2672 23.5446 26.2743 23.6021H27.8165C27.8112 23.5683 27.8049 23.5363 27.7996 23.5025C27.7996 23.4925 27.7995 23.4824 27.7951 23.4733C27.6792 22.7074 27.7241 21.925 27.9266 21.1781C28.1292 20.4312 28.4849 19.737 28.97 19.1415V16.9944C28.1128 17.6521 27.4172 18.5049 26.9384 19.4854C26.4596 20.4658 26.2109 21.5469 26.2118 22.6428Z" fill="#5476EF"/>
<path d="M28.9728 23.3737V20.0415C28.5029 20.8239 28.2553 21.7246 28.258 22.6428C28.258 22.7241 28.258 22.8045 28.2642 22.8849C28.2642 22.9096 28.2642 22.9351 28.2687 22.9607C28.2687 23.0146 28.2758 23.0685 28.2812 23.1224C28.2812 23.1544 28.2883 23.1855 28.2919 23.2138C28.2964 23.2595 28.3026 23.3052 28.3089 23.3527C28.3151 23.4002 28.3187 23.4221 28.325 23.4568C28.3312 23.4916 28.3384 23.5391 28.3464 23.5802C28.3464 23.5866 28.3464 23.5921 28.3464 23.5976H28.7494C28.8079 23.5976 28.864 23.5741 28.9058 23.5323C28.9475 23.4904 28.9716 23.4335 28.9728 23.3737Z" fill="#5476EF"/>
</g>
<defs>
<clipPath id="clip0_592_6082">
<rect width="63.0009" height="40" fill="white" transform="translate(0.499512)"/>
</clipPath>
</defs>
</svg>
